<svg width="1240" height="2272" viewBox="0 0 1240 2272" xmlns="http://www.w3.org/2000/svg">
<defs>
  <linearGradient id="titleGrad" x1="0%" y1="0%" x2="100%" y2="100%">
    <stop offset="0%" stop-color="#1e3a8a"/>
    <stop offset="55%" stop-color="#4338ca"/>
    <stop offset="100%" stop-color="#7c3aed"/>
  </linearGradient>
  <filter id="softShadow" x="-20%" y="-20%" width="140%" height="140%">
    <feDropShadow dx="0" dy="6" stdDeviation="10" flood-color="#1e293b" flood-opacity="0.12"/>
  </filter>
  <filter id="chipShadow" x="-30%" y="-30%" width="160%" height="160%">
    <feDropShadow dx="0" dy="2" stdDeviation="2" flood-color="#1e293b" flood-opacity="0.08"/>
  </filter>
  <marker id="arrowhead" markerWidth="10" markerHeight="10" refX="5" refY="5" orient="auto">
    <path d="M0,0 L10,5 L0,10 Z" fill="#6d28d9"/>
  </marker>
</defs>
<rect width="1240" height="2272" fill="#f8fafc"/>

<rect x="120" y="30" width="1000" height="110" rx="22" fill="url(#titleGrad)" filter="url(#softShadow)"/>
<text x="620.0" y="72" font-family="'Segoe UI', 'Helvetica Neue', Arial, sans-serif" font-size="30" font-weight="700" fill="#ffffff" text-anchor="middle">NovaMS — Quick Commerce Analytics Dashboard</text>
<text x="620.0" y="102" font-family="'Segoe UI', 'Helvetica Neue', Arial, sans-serif" font-size="15.5" fill="#dbeafe" text-anchor="middle" letter-spacing="0.5">SYSTEM ARCHITECTURE OVERVIEW</text>
<line x1="620.0" y1="140" x2="620.0" y2="196" stroke="#6d28d9" stroke-width="3" marker-end="url(#arrowhead)"/><rect x="120" y="196" width="1000" height="194" rx="20" fill="#ffffff" filter="url(#softShadow)" />
    <defs><linearGradient id="grad0" x1="0%" y1="0%" x2="100%" y2="0%">
      <stop offset="0%" stop-color="#2563eb"/>
      <stop offset="100%" stop-color="#3b82f6"/>
    </linearGradient></defs>
    <path d="M 120 216 Q 120 196 140 196 L 1100 196 Q 1120 196 1120 216 L 1120 260 L 120 260 Z" fill="url(#grad0)"/>
    <text x="154" y="234" font-family="'Segoe UI', 'Helvetica Neue', Arial, sans-serif" font-size="26" text-anchor="start">🗂️</text><text x="194" y="232" font-family="'Segoe UI', 'Helvetica Neue', Arial, sans-serif" font-size="21" font-weight="700" fill="#ffffff" text-anchor="start">Data Sources</text><circle cx="1084" cy="228.0" r="17" fill="rgba(255,255,255,0.22)"/><text x="1084" y="233.0" font-family="'Segoe UI', 'Helvetica Neue', Arial, sans-serif" font-size="14" font-weight="700" fill="#ffffff" text-anchor="middle">1</text><rect x="231.74" y="286" width="161.92" height="34" rx="17.0" fill="#f8fafc" stroke="#bfdbfe" stroke-width="1.4" filter="url(#chipShadow)"/><text x="312.7" y="308.0" font-family="'Segoe UI', 'Helvetica Neue', Arial, sans-serif" font-size="13.5" font-weight="600" fill="#1e3a8a" text-anchor="middle">Zepto Sales Data</text><rect x="403.65999999999997" y="286" width="129.44" height="34" rx="17.0" fill="#f8fafc" stroke="#bfdbfe" stroke-width="1.4" filter="url(#chipShadow)"/><text x="468.38" y="308.0" font-family="'Segoe UI', 'Helvetica Neue', Arial, sans-serif" font-size="13.5" font-weight="600" fill="#1e3a8a" text-anchor="middle">Blinkit Data</text><rect x="543.0999999999999" y="286" width="145.68" height="34" rx="17.0" fill="#f8fafc" stroke="#bfdbfe" stroke-width="1.4" filter="url(#chipShadow)"/><text x="615.9399999999999" y="308.0" font-family="'Segoe UI', 'Helvetica Neue', Arial, sans-serif" font-size="13.5" font-weight="600" fill="#1e3a8a" text-anchor="middle">Instamart Data</text><rect x="698.78" y="286" width="113.19999999999999" height="34" rx="17.0" fill="#f8fafc" stroke="#bfdbfe" stroke-width="1.4" filter="url(#chipShadow)"/><text x="755.38" y="308.0" font-family="'Segoe UI', 'Helvetica Neue', Arial, sans-serif" font-size="13.5" font-weight="600" fill="#1e3a8a" text-anchor="middle">CSV Upload</text><rect x="821.98" y="286" width="186.28" height="34" rx="17.0" fill="#f8fafc" stroke="#bfdbfe" stroke-width="1.4" filter="url(#chipShadow)"/><text x="915.12" y="308.0" font-family="'Segoe UI', 'Helvetica Neue', Arial, sans-serif" font-size="13.5" font-weight="600" fill="#1e3a8a" text-anchor="middle">PostgreSQL Database</text><rect x="551.22" y="330" width="137.56" height="34" rx="17.0" fill="#f8fafc" stroke="#bfdbfe" stroke-width="1.4" filter="url(#chipShadow)"/><text x="620.0" y="352.0" font-family="'Segoe UI', 'Helvetica Neue', Arial, sans-serif" font-size="13.5" font-weight="600" fill="#1e3a8a" text-anchor="middle">External APIs</text><line x1="620.0" y1="390" x2="620.0" y2="446" stroke="#6d28d9" stroke-width="3" marker-end="url(#arrowhead)"/><rect x="120" y="446" width="1000" height="150" rx="20" fill="#ffffff" filter="url(#softShadow)" />
    <defs><linearGradient id="grad1" x1="0%" y1="0%" x2="100%" y2="0%">
      <stop offset="0%" stop-color="#4f46e5"/>
      <stop offset="100%" stop-color="#6366f1"/>
    </linearGradient></defs>
    <path d="M 120 466 Q 120 446 140 446 L 1100 446 Q 1120 446 1120 466 L 1120 510 L 120 510 Z" fill="url(#grad1)"/>
    <text x="154" y="484" font-family="'Segoe UI', 'Helvetica Neue', Arial, sans-serif" font-size="26" text-anchor="start">⚙️</text><text x="194" y="482" font-family="'Segoe UI', 'Helvetica Neue', Arial, sans-serif" font-size="21" font-weight="700" fill="#ffffff" text-anchor="start">ETL Layer</text><circle cx="1084" cy="478.0" r="17" fill="rgba(255,255,255,0.22)"/><text x="1084" y="483.0" font-family="'Segoe UI', 'Helvetica Neue', Arial, sans-serif" font-size="14" font-weight="700" fill="#ffffff" text-anchor="middle">2</text><rect x="162.72000000000003" y="536" width="137.56" height="34" rx="17.0" fill="#f8fafc" stroke="#c7d2fe" stroke-width="1.4" filter="url(#chipShadow)"/><text x="231.50000000000003" y="558.0" font-family="'Segoe UI', 'Helvetica Neue', Arial, sans-serif" font-size="13.5" font-weight="600" fill="#312e81" text-anchor="middle">Data Cleaning</text><rect x="310.28000000000003" y="536" width="210.64" height="34" rx="17.0" fill="#f8fafc" stroke="#c7d2fe" stroke-width="1.4" filter="url(#chipShadow)"/><text x="415.6" y="558.0" font-family="'Segoe UI', 'Helvetica Neue', Arial, sans-serif" font-size="13.5" font-weight="600" fill="#312e81" text-anchor="middle">Missing Value Handling</text><rect x="530.9200000000001" y="536" width="153.8" height="34" rx="17.0" fill="#f8fafc" stroke="#c7d2fe" stroke-width="1.4" filter="url(#chipShadow)"/><text x="607.82" y="558.0" font-family="'Segoe UI', 'Helvetica Neue', Arial, sans-serif" font-size="13.5" font-weight="600" fill="#312e81" text-anchor="middle">Data Validation</text><rect x="694.72" y="536" width="186.28" height="34" rx="17.0" fill="#f8fafc" stroke="#c7d2fe" stroke-width="1.4" filter="url(#chipShadow)"/><text x="787.86" y="558.0" font-family="'Segoe UI', 'Helvetica Neue', Arial, sans-serif" font-size="13.5" font-weight="600" fill="#312e81" text-anchor="middle">Feature Engineering</text><rect x="891.0" y="536" width="186.28" height="34" rx="17.0" fill="#f8fafc" stroke="#c7d2fe" stroke-width="1.4" filter="url(#chipShadow)"/><text x="984.14" y="558.0" font-family="'Segoe UI', 'Helvetica Neue', Arial, sans-serif" font-size="13.5" font-weight="600" fill="#312e81" text-anchor="middle">Data Transformation</text><line x1="620.0" y1="596" x2="620.0" y2="652" stroke="#6d28d9" stroke-width="3" marker-end="url(#arrowhead)"/><rect x="120" y="652" width="1000" height="90" rx="20" fill="#ffffff" filter="url(#softShadow)" />
    <defs><linearGradient id="grad2" x1="0%" y1="0%" x2="100%" y2="0%">
      <stop offset="0%" stop-color="#1d4ed8"/>
      <stop offset="100%" stop-color="#2563eb"/>
    </linearGradient></defs>
    <path d="M 120 672 Q 120 652 140 652 L 1100 652 Q 1120 652 1120 672 L 1120 732 L 120 732 Z" fill="url(#grad2)"/>
    <text x="154" y="686" font-family="'Segoe UI', 'Helvetica Neue', Arial, sans-serif" font-size="26" text-anchor="start">🗄️</text><text x="194" y="684" font-family="'Segoe UI', 'Helvetica Neue', Arial, sans-serif" font-size="21" font-weight="700" fill="#ffffff" text-anchor="start">Data Warehouse</text><text x="194" y="706" font-family="'Segoe UI', 'Helvetica Neue', Arial, sans-serif" font-size="13" fill="#e0e7ff" text-anchor="start">Centralized, query-optimized storage</text><circle cx="1084" cy="692.0" r="17" fill="rgba(255,255,255,0.22)"/><text x="1084" y="697.0" font-family="'Segoe UI', 'Helvetica Neue', Arial, sans-serif" font-size="14" font-weight="700" fill="#ffffff" text-anchor="middle">3</text><line x1="620.0" y1="742" x2="620.0" y2="798" stroke="#6d28d9" stroke-width="3" marker-end="url(#arrowhead)"/><rect x="120" y="798" width="1000" height="194" rx="20" fill="#ffffff" filter="url(#softShadow)" />
    <defs><linearGradient id="grad3" x1="0%" y1="0%" x2="100%" y2="0%">
      <stop offset="0%" stop-color="#7c3aed"/>
      <stop offset="100%" stop-color="#9333ea"/>
    </linearGradient></defs>
    <path d="M 120 818 Q 120 798 140 798 L 1100 798 Q 1120 798 1120 818 L 1120 862 L 120 862 Z" fill="url(#grad3)"/>
    <text x="154" y="836" font-family="'Segoe UI', 'Helvetica Neue', Arial, sans-serif" font-size="26" text-anchor="start">📊</text><text x="194" y="834" font-family="'Segoe UI', 'Helvetica Neue', Arial, sans-serif" font-size="21" font-weight="700" fill="#ffffff" text-anchor="start">Analytics Engine</text><circle cx="1084" cy="830.0" r="17" fill="rgba(255,255,255,0.22)"/><text x="1084" y="835.0" font-family="'Segoe UI', 'Helvetica Neue', Arial, sans-serif" font-size="14" font-weight="700" fill="#ffffff" text-anchor="middle">4</text><rect x="207.38" y="888" width="145.68" height="34" rx="17.0" fill="#f8fafc" stroke="#e9d5ff" stroke-width="1.4" filter="url(#chipShadow)"/><text x="280.22" y="910.0" font-family="'Segoe UI', 'Helvetica Neue', Arial, sans-serif" font-size="13.5" font-weight="600" fill="#581c87" text-anchor="middle">KPI Calculator</text><rect x="363.06" y="888" width="121.32" height="34" rx="17.0" fill="#f8fafc" stroke="#e9d5ff" stroke-width="1.4" filter="url(#chipShadow)"/><text x="423.72" y="910.0" font-family="'Segoe UI', 'Helvetica Neue', Arial, sans-serif" font-size="13.5" font-weight="600" fill="#581c87" text-anchor="middle">Forecasting</text><rect x="494.38" y="888" width="178.16" height="34" rx="17.0" fill="#f8fafc" stroke="#e9d5ff" stroke-width="1.4" filter="url(#chipShadow)"/><text x="583.46" y="910.0" font-family="'Segoe UI', 'Helvetica Neue', Arial, sans-serif" font-size="13.5" font-weight="600" fill="#581c87" text-anchor="middle">Customer Analytics</text><rect x="682.54" y="888" width="170.04" height="34" rx="17.0" fill="#f8fafc" stroke="#e9d5ff" stroke-width="1.4" filter="url(#chipShadow)"/><text x="767.56" y="910.0" font-family="'Segoe UI', 'Helvetica Neue', Arial, sans-serif" font-size="13.5" font-weight="600" fill="#581c87" text-anchor="middle">Product Analytics</text><rect x="862.5799999999999" y="888" width="170.04" height="34" rx="17.0" fill="#f8fafc" stroke="#e9d5ff" stroke-width="1.4" filter="url(#chipShadow)"/><text x="947.5999999999999" y="910.0" font-family="'Segoe UI', 'Helvetica Neue', Arial, sans-serif" font-size="13.5" font-weight="600" fill="#581c87" text-anchor="middle">Revenue Analytics</text><rect x="424.66" y="932" width="186.28" height="34" rx="17.0" fill="#f8fafc" stroke="#e9d5ff" stroke-width="1.4" filter="url(#chipShadow)"/><text x="517.8000000000001" y="954.0" font-family="'Segoe UI', 'Helvetica Neue', Arial, sans-serif" font-size="13.5" font-weight="600" fill="#581c87" text-anchor="middle">Inventory Analytics</text><rect x="620.94" y="932" width="194.39999999999998" height="34" rx="17.0" fill="#f8fafc" stroke="#e9d5ff" stroke-width="1.4" filter="url(#chipShadow)"/><text x="718.1400000000001" y="954.0" font-family="'Segoe UI', 'Helvetica Neue', Arial, sans-serif" font-size="13.5" font-weight="600" fill="#581c87" text-anchor="middle">Geographic Analytics</text><line x1="620.0" y1="992" x2="620.0" y2="1048" stroke="#6d28d9" stroke-width="3" marker-end="url(#arrowhead)"/><rect x="120" y="1048" width="1000" height="194" rx="20" fill="#ffffff" filter="url(#softShadow)" />
    <defs><linearGradient id="grad4" x1="0%" y1="0%" x2="100%" y2="0%">
      <stop offset="0%" stop-color="#8b5cf6"/>
      <stop offset="100%" stop-color="#a855f7"/>
    </linearGradient></defs>
    <path d="M 120 1068 Q 120 1048 140 1048 L 1100 1048 Q 1120 1048 1120 1068 L 1120 1112 L 120 1112 Z" fill="url(#grad4)"/>
    <text x="154" y="1086" font-family="'Segoe UI', 'Helvetica Neue', Arial, sans-serif" font-size="26" text-anchor="start">🧠</text><text x="194" y="1084" font-family="'Segoe UI', 'Helvetica Neue', Arial, sans-serif" font-size="21" font-weight="700" fill="#ffffff" text-anchor="start">Machine Learning</text><circle cx="1084" cy="1080.0" r="17" fill="rgba(255,255,255,0.22)"/><text x="1084" y="1085.0" font-family="'Segoe UI', 'Helvetica Neue', Arial, sans-serif" font-size="14" font-weight="700" fill="#ffffff" text-anchor="middle">5</text><rect x="244.62" y="1138" width="145.68" height="34" rx="17.0" fill="#f8fafc" stroke="#ede9fe" stroke-width="1.4" filter="url(#chipShadow)"/><text x="317.46000000000004" y="1160.0" font-family="'Segoe UI', 'Helvetica Neue', Arial, sans-serif" font-size="13.5" font-weight="600" fill="#5b21b6" text-anchor="middle">Sales Forecast</text><rect x="400.3" y="1138" width="170.04" height="34" rx="17.0" fill="#f8fafc" stroke="#ede9fe" stroke-width="1.4" filter="url(#chipShadow)"/><text x="485.32" y="1160.0" font-family="'Segoe UI', 'Helvetica Neue', Arial, sans-serif" font-size="13.5" font-weight="600" fill="#5b21b6" text-anchor="middle">Demand Prediction</text><rect x="580.34" y="1138" width="202.51999999999998" height="34" rx="17.0" fill="#f8fafc" stroke="#ede9fe" stroke-width="1.4" filter="url(#chipShadow)"/><text x="681.6" y="1160.0" font-family="'Segoe UI', 'Helvetica Neue', Arial, sans-serif" font-size="13.5" font-weight="600" fill="#5b21b6" text-anchor="middle">Customer Segmentation</text><rect x="792.86" y="1138" width="202.51999999999998" height="34" rx="17.0" fill="#f8fafc" stroke="#ede9fe" stroke-width="1.4" filter="url(#chipShadow)"/><text x="894.12" y="1160.0" font-family="'Segoe UI', 'Helvetica Neue', Arial, sans-serif" font-size="13.5" font-weight="600" fill="#5b21b6" text-anchor="middle">Recommendation System</text><rect x="534.98" y="1182" width="170.04" height="34" rx="17.0" fill="#f8fafc" stroke="#ede9fe" stroke-width="1.4" filter="url(#chipShadow)"/><text x="620.0" y="1204.0" font-family="'Segoe UI', 'Helvetica Neue', Arial, sans-serif" font-size="13.5" font-weight="600" fill="#5b21b6" text-anchor="middle">Anomaly Detection</text><line x1="620.0" y1="1242" x2="620.0" y2="1298" stroke="#6d28d9" stroke-width="3" marker-end="url(#arrowhead)"/><rect x="120" y="1298" width="1000" height="90" rx="20" fill="#ffffff" filter="url(#softShadow)" />
    <defs><linearGradient id="grad5" x1="0%" y1="0%" x2="100%" y2="0%">
      <stop offset="0%" stop-color="#2563eb"/>
      <stop offset="100%" stop-color="#1d4ed8"/>
    </linearGradient></defs>
    <path d="M 120 1318 Q 120 1298 140 1298 L 1100 1298 Q 1120 1298 1120 1318 L 1120 1378 L 120 1378 Z" fill="url(#grad5)"/>
    <text x="154" y="1332" font-family="'Segoe UI', 'Helvetica Neue', Arial, sans-serif" font-size="26" text-anchor="start">⚡</text><text x="194" y="1330" font-family="'Segoe UI', 'Helvetica Neue', Arial, sans-serif" font-size="21" font-weight="700" fill="#ffffff" text-anchor="start">Backend — FastAPI</text><text x="194" y="1352" font-family="'Segoe UI', 'Helvetica Neue', Arial, sans-serif" font-size="13" fill="#e0e7ff" text-anchor="start">High-performance REST + async API layer</text><circle cx="1084" cy="1338.0" r="17" fill="rgba(255,255,255,0.22)"/><text x="1084" y="1343.0" font-family="'Segoe UI', 'Helvetica Neue', Arial, sans-serif" font-size="14" font-weight="700" fill="#ffffff" text-anchor="middle">6</text><line x1="620.0" y1="1388" x2="620.0" y2="1444" stroke="#6d28d9" stroke-width="3" marker-end="url(#arrowhead)"/><rect x="120" y="1444" width="1000" height="90" rx="20" fill="#ffffff" filter="url(#softShadow)" stroke="#c084fc" stroke-width="2.5"/>
    <defs><linearGradient id="grad6" x1="0%" y1="0%" x2="100%" y2="0%">
      <stop offset="0%" stop-color="#7c3aed"/>
      <stop offset="100%" stop-color="#a855f7"/>
    </linearGradient></defs>
    <path d="M 120 1464 Q 120 1444 140 1444 L 1100 1444 Q 1120 1444 1120 1464 L 1120 1524 L 120 1524 Z" fill="url(#grad6)"/>
    <text x="154" y="1478" font-family="'Segoe UI', 'Helvetica Neue', Arial, sans-serif" font-size="26" text-anchor="start">✨</text><text x="194" y="1476" font-family="'Segoe UI', 'Helvetica Neue', Arial, sans-serif" font-size="21" font-weight="700" fill="#ffffff" text-anchor="start">Claude AI Assistant</text><text x="194" y="1498" font-family="'Segoe UI', 'Helvetica Neue', Arial, sans-serif" font-size="13" fill="#e0e7ff" text-anchor="start">Conversational insights & natural-language queries</text><circle cx="1084" cy="1484.0" r="17" fill="rgba(255,255,255,0.22)"/><text x="1084" y="1489.0" font-family="'Segoe UI', 'Helvetica Neue', Arial, sans-serif" font-size="14" font-weight="700" fill="#ffffff" text-anchor="middle">7</text><line x1="620.0" y1="1534" x2="620.0" y2="1590" stroke="#6d28d9" stroke-width="3" marker-end="url(#arrowhead)"/><rect x="120" y="1590" width="1000" height="90" rx="20" fill="#ffffff" filter="url(#softShadow)" />
    <defs><linearGradient id="grad7" x1="0%" y1="0%" x2="100%" y2="0%">
      <stop offset="0%" stop-color="#2563eb"/>
      <stop offset="100%" stop-color="#3b82f6"/>
    </linearGradient></defs>
    <path d="M 120 1610 Q 120 1590 140 1590 L 1100 1590 Q 1120 1590 1120 1610 L 1120 1670 L 120 1670 Z" fill="url(#grad7)"/>
    <text x="154" y="1624" font-family="'Segoe UI', 'Helvetica Neue', Arial, sans-serif" font-size="26" text-anchor="start">💻</text><text x="194" y="1622" font-family="'Segoe UI', 'Helvetica Neue', Arial, sans-serif" font-size="21" font-weight="700" fill="#ffffff" text-anchor="start">Frontend — React Dashboard</text><text x="194" y="1644" font-family="'Segoe UI', 'Helvetica Neue', Arial, sans-serif" font-size="13" fill="#e0e7ff" text-anchor="start">Responsive, role-aware single-page application</text><circle cx="1084" cy="1630.0" r="17" fill="rgba(255,255,255,0.22)"/><text x="1084" y="1635.0" font-family="'Segoe UI', 'Helvetica Neue', Arial, sans-serif" font-size="14" font-weight="700" fill="#ffffff" text-anchor="middle">8</text><line x1="620.0" y1="1680" x2="620.0" y2="1736" stroke="#6d28d9" stroke-width="3" marker-end="url(#arrowhead)"/><rect x="120" y="1736" width="1000" height="194" rx="20" fill="#ffffff" filter="url(#softShadow)" />
    <defs><linearGradient id="grad8" x1="0%" y1="0%" x2="100%" y2="0%">
      <stop offset="0%" stop-color="#4f46e5"/>
      <stop offset="100%" stop-color="#6366f1"/>
    </linearGradient></defs>
    <path d="M 120 1756 Q 120 1736 140 1736 L 1100 1736 Q 1120 1736 1120 1756 L 1120 1800 L 120 1800 Z" fill="url(#grad8)"/>
    <text x="154" y="1774" font-family="'Segoe UI', 'Helvetica Neue', Arial, sans-serif" font-size="26" text-anchor="start">🗂️</text><text x="194" y="1772" font-family="'Segoe UI', 'Helvetica Neue', Arial, sans-serif" font-size="21" font-weight="700" fill="#ffffff" text-anchor="start">Dashboard Modules</text><circle cx="1084" cy="1768.0" r="17" fill="rgba(255,255,255,0.22)"/><text x="1084" y="1773.0" font-family="'Segoe UI', 'Helvetica Neue', Arial, sans-serif" font-size="14" font-weight="700" fill="#ffffff" text-anchor="middle">9</text><rect x="252.74" y="1826" width="186.28" height="34" rx="17.0" fill="#f8fafc" stroke="#c7d2fe" stroke-width="1.4" filter="url(#chipShadow)"/><text x="345.88" y="1848.0" font-family="'Segoe UI', 'Helvetica Neue', Arial, sans-serif" font-size="13.5" font-weight="600" fill="#312e81" text-anchor="middle">Executive Dashboard</text><rect x="449.02" y="1826" width="153.8" height="34" rx="17.0" fill="#f8fafc" stroke="#c7d2fe" stroke-width="1.4" filter="url(#chipShadow)"/><text x="525.92" y="1848.0" font-family="'Segoe UI', 'Helvetica Neue', Arial, sans-serif" font-size="13.5" font-weight="600" fill="#312e81" text-anchor="middle">Sales Dashboard</text><rect x="612.8199999999999" y="1826" width="178.16" height="34" rx="17.0" fill="#f8fafc" stroke="#c7d2fe" stroke-width="1.4" filter="url(#chipShadow)"/><text x="701.9" y="1848.0" font-family="'Segoe UI', 'Helvetica Neue', Arial, sans-serif" font-size="13.5" font-weight="600" fill="#312e81" text-anchor="middle">Customer Dashboard</text><rect x="800.98" y="1826" width="186.28" height="34" rx="17.0" fill="#f8fafc" stroke="#c7d2fe" stroke-width="1.4" filter="url(#chipShadow)"/><text x="894.12" y="1848.0" font-family="'Segoe UI', 'Helvetica Neue', Arial, sans-serif" font-size="13.5" font-weight="600" fill="#312e81" text-anchor="middle">Inventory Dashboard</text><rect x="228.38" y="1870" width="186.28" height="34" rx="17.0" fill="#f8fafc" stroke="#c7d2fe" stroke-width="1.4" filter="url(#chipShadow)"/><text x="321.52" y="1892.0" font-family="'Segoe UI', 'Helvetica Neue', Arial, sans-serif" font-size="13.5" font-weight="600" fill="#312e81" text-anchor="middle">Marketing Dashboard</text><rect x="424.65999999999997" y="1870" width="170.04" height="34" rx="17.0" fill="#f8fafc" stroke="#c7d2fe" stroke-width="1.4" filter="url(#chipShadow)"/><text x="509.67999999999995" y="1892.0" font-family="'Segoe UI', 'Helvetica Neue', Arial, sans-serif" font-size="13.5" font-weight="600" fill="#312e81" text-anchor="middle">Finance Dashboard</text><rect x="604.6999999999999" y="1870" width="194.39999999999998" height="34" rx="17.0" fill="#f8fafc" stroke="#c7d2fe" stroke-width="1.4" filter="url(#chipShadow)"/><text x="701.8999999999999" y="1892.0" font-family="'Segoe UI', 'Helvetica Neue', Arial, sans-serif" font-size="13.5" font-weight="600" fill="#312e81" text-anchor="middle">Operations Dashboard</text><rect x="809.0999999999999" y="1870" width="202.51999999999998" height="34" rx="17.0" fill="#f8fafc" stroke="#c7d2fe" stroke-width="1.4" filter="url(#chipShadow)"/><text x="910.3599999999999" y="1892.0" font-family="'Segoe UI', 'Helvetica Neue', Arial, sans-serif" font-size="13.5" font-weight="600" fill="#312e81" text-anchor="middle">AI Insights Dashboard</text><line x1="620.0" y1="1930" x2="620.0" y2="1986" stroke="#6d28d9" stroke-width="3" marker-end="url(#arrowhead)"/><rect x="120" y="1986" width="1000" height="150" rx="20" fill="#ffffff" filter="url(#softShadow)" />
    <defs><linearGradient id="grad9" x1="0%" y1="0%" x2="100%" y2="0%">
      <stop offset="0%" stop-color="#1e293b"/>
      <stop offset="100%" stop-color="#334155"/>
    </linearGradient></defs>
    <path d="M 120 2006 Q 120 1986 140 1986 L 1100 1986 Q 1120 1986 1120 2006 L 1120 2050 L 120 2050 Z" fill="url(#grad9)"/>
    <text x="154" y="2024" font-family="'Segoe UI', 'Helvetica Neue', Arial, sans-serif" font-size="26" text-anchor="start">👤</text><text x="194" y="2022" font-family="'Segoe UI', 'Helvetica Neue', Arial, sans-serif" font-size="21" font-weight="700" fill="#ffffff" text-anchor="start">Users</text><circle cx="1084" cy="2018.0" r="17" fill="rgba(255,255,255,0.22)"/><text x="1084" y="2023.0" font-family="'Segoe UI', 'Helvetica Neue', Arial, sans-serif" font-size="14" font-weight="700" fill="#ffffff" text-anchor="middle">10</text><rect x="386.72" y="2076" width="56.36" height="34" rx="17.0" fill="#f8fafc" stroke="#e2e8f0" stroke-width="1.4" filter="url(#chipShadow)"/><text x="414.90000000000003" y="2098.0" font-family="'Segoe UI', 'Helvetica Neue', Arial, sans-serif" font-size="13.5" font-weight="600" fill="#0f172a" text-anchor="middle">CEO</text><rect x="453.08000000000004" y="2076" width="88.84" height="34" rx="17.0" fill="#f8fafc" stroke="#e2e8f0" stroke-width="1.4" filter="url(#chipShadow)"/><text x="497.50000000000006" y="2098.0" font-family="'Segoe UI', 'Helvetica Neue', Arial, sans-serif" font-size="13.5" font-weight="600" fill="#0f172a" text-anchor="middle">Manager</text><rect x="551.9200000000001" y="2076" width="161.92" height="34" rx="17.0" fill="#f8fafc" stroke="#e2e8f0" stroke-width="1.4" filter="url(#chipShadow)"/><text x="632.8800000000001" y="2098.0" font-family="'Segoe UI', 'Helvetica Neue', Arial, sans-serif" font-size="13.5" font-weight="600" fill="#0f172a" text-anchor="middle">Business Analyst</text><rect x="723.84" y="2076" width="129.44" height="34" rx="17.0" fill="#f8fafc" stroke="#e2e8f0" stroke-width="1.4" filter="url(#chipShadow)"/><text x="788.5600000000001" y="2098.0" font-family="'Segoe UI', 'Helvetica Neue', Arial, sans-serif" font-size="13.5" font-weight="600" fill="#0f172a" text-anchor="middle">Data Analyst</text></svg>